M48
INCH
T01C0.018
T02C0.024
T03C0.032
T04C0.038
T05C0.080
T06C0.160
T07C0.800
%
T01
X+046250Y+044340
X+048070Y+026300
X+049440Y+022760
X+046030Y+033090
X+046700
X+045920Y+050010
X+044090Y+047760
X+047570Y+042250
X+046830Y+044310
X+047960Y+033380
X+047090
X+044870Y+048320
X+047560Y+041680
X+048810Y+033720
X+049180Y+036030
X+046780Y+039070
X+043500Y+042160
X+045690Y+030890
X+059640Y+025160
X+057430Y+024120
X+051110Y+037510
X+060720Y+036790
X+060200Y+036630
X+059300Y+036690
X+061620Y+037470
X+059840Y+029490
X+057640Y+034380
X+058310Y+030730
X+060480Y+031110
X+062250Y+029150
X+059000Y+031390
X+058100Y+028430
X+061450Y+028250
X+057460Y+028910
X+058800Y+035190
X+051490Y+035320
X+056730Y+034850
X+062130Y+035360
X+050840Y+032900
X+050870Y+029040
X+050480Y+033600
X+055800Y+030120
X+056030Y+030410
X+055760Y+030680
X+055550Y+029780
X+055460Y+031150
X+055100Y+030880
X+054780Y+029290
X+052950Y+032000
X+054420Y+029130
X+060650Y+029700
X+058960Y+028450
X+059760Y+031690
X+057600Y+029490
X+060650Y+029000
X+057980Y+033030
X+058840Y+033470
X+054660Y+027840
X+056630Y+032200
X+056010Y+032270
X+056530Y+033780
X+051060Y+030490
X+052320Y+028080
X+052390Y+029770
X+053430Y+028110
X+052660Y+030570
X+052230Y+032270
X+052070Y+031670
X+062140Y+036190
X+055800Y+034930
X+054890Y+036070
X+052380Y+038950
X+061430Y+038180
X+060460Y+044050
X+060450Y+038110
X+057270Y+037760
X+054550Y+038260
X+055935Y+041270
X+056240Y+038130
X+061310Y+040310
T02
X+050650Y+026750
X+050150
X+051150
X+062200Y+030220
Y+029720
Y+030720
X+052980Y+026550
X+052480
X+053480
T03
X+045370Y+023290
X+046370
X+046720Y+036670
Y+037670
X+046750Y+045750
X+047750Y+046250
Y+045250
X+043400Y+033490
X+044600
X+062060Y+025560
Y+027560
X+053690Y+023790
Y+022790
T04
X+046850Y+051100
X+047550
X+048250
X+048950
X+049650
X+050350
X+051050
X+051750
X+052450
X+053150
X+053850
X+054550
X+055250
X+055950
X+056650
X+057350
X+058050
Y+040700
X+057350
X+056650
X+055950
X+055250
X+054550
X+053850
X+053150
X+052450
X+051750
X+051050
X+050350
X+049650
X+048950
X+048250
X+047550
X+046850
X+050920Y+022760
Y+023760
T05
X+044600Y+039900
Y+051600
X+060100
Y+039900
T06
X+042950Y+023250
Y+053950
X+061950
Y+023250
T07
X+052450Y+045900
T00
M30
